<svg xmlns="http://www.w3.org/2000/svg" xmlns:xlink="http://www.w3.org/1999/xlink" xmlns:lucid="lucid" width="920" height="460"><g transform="translate(-100 -280)" lucid:page-tab-id="0_0"><path d="M400 300h320v80H400z" stroke="#333" fill="#ffeca9"/><path d="M400 337.6h320" stroke="#333" fill="none"/><use xlink:href="#a" transform="matrix(1,0,0,1,408,308) translate(121.07499999999999 14.6)"/><use xlink:href="#b" transform="matrix(1,0,0,1,412,345.6) translate(7.125 17.1)"/><use xlink:href="#c" transform="matrix(1,0,0,1,412,345.6) translate(41.125 17.1)"/><use xlink:href="#d" transform="matrix(1,0,0,1,412,345.6) translate(105.125 17.1)"/><use xlink:href="#e" transform="matrix(1,0,0,1,412,345.6) translate(140.025 17.1)"/><use xlink:href="#f" transform="matrix(1,0,0,1,412,345.6) translate(192.97500000000002 17.1)"/><use xlink:href="#g" transform="matrix(1,0,0,1,412,345.6) translate(227.97500000000002 17.1)"/><path d="M120 480h360v80H120z" stroke="#333" fill="#ffc374"/><path d="M120 517.6h360" stroke="#333" fill="none"/><use xlink:href="#h" transform="matrix(1,0,0,1,128,488) translate(145.55 14.6)"/><use xlink:href="#i" transform="matrix(1,0,0,1,132,525.6) translate(35.625 17.1)"/><use xlink:href="#j" transform="matrix(1,0,0,1,132,525.6) translate(125.525 17.1)"/><use xlink:href="#k" transform="matrix(1,0,0,1,132,525.6) translate(232.425 17.1)"/><use xlink:href="#l" transform="matrix(1,0,0,1,132,525.6) translate(252.425 17.1)"/><path d="M640 480h360v80H640z" stroke="#333" fill="#ffc374"/><path d="M640 517.6h360" stroke="#333" fill="none"/><use xlink:href="#m" transform="matrix(1,0,0,1,648,488) translate(147.5 14.6)"/><use xlink:href="#n" transform="matrix(1,0,0,1,652,525.6) translate(11.75 17.1)"/><use xlink:href="#o" transform="matrix(1,0,0,1,652,525.6) translate(91.60000000000001 17.1)"/><use xlink:href="#p" transform="matrix(1,0,0,1,652,525.6) translate(168.45000000000002 17.1)"/><use xlink:href="#q" transform="matrix(1,0,0,1,652,525.6) translate(256.3 17.1)"/><use xlink:href="#l" transform="matrix(1,0,0,1,652,525.6) translate(276.3 17.1)"/><path d="M560 381v49H300v33.12" stroke="#333" fill="none"/><path d="M560.5 381h-1v-.5h1z" fill="#333"/><path d="M300 477.88l-4.64-14.26h9.28z" stroke="#333" fill="#333"/><path d="M560 381v49h260v33.12" stroke="#333" fill="none"/><path d="M560.5 381h-1v-.5h1z" fill="#333"/><path d="M820 477.88l-4.64-14.26h9.28z" stroke="#333" fill="#333"/><path d="M400 640h320v80H400z" stroke="#333" fill="#ffdba9"/><g><use xlink:href="#r" transform="matrix(1,0,0,1,408,648) translate(23.775000000000006 24.799999999999997)"/><use xlink:href="#s" transform="matrix(1,0,0,1,408,648) translate(72.625 24.799999999999997)"/><use xlink:href="#t" transform="matrix(1,0,0,1,408,648) translate(102.625 24.799999999999997)"/><use xlink:href="#u" transform="matrix(1,0,0,1,408,648) translate(185.425 24.799999999999997)"/><use xlink:href="#v" transform="matrix(1,0,0,1,408,648) translate(274.275 24.799999999999997)"/><use xlink:href="#w" transform="matrix(1,0,0,1,408,648) translate(96.57499999999999 46.4)"/><use xlink:href="#x" transform="matrix(1,0,0,1,408,648) translate(173.475 46.4)"/></g><path d="M820 561v39H560v23.12" stroke="#333" fill="none"/><path d="M820.5 561h-1v-.5h1z" fill="#333"/><path d="M560 637.88l-4.64-14.26h9.28z" stroke="#333" fill="#333"/><path d="M300 561v39h260v23.12" stroke="#333" fill="none"/><path d="M300.5 561h-1v-.5h1z" fill="#333"/><path d="M560 637.88l-4.64-14.26h9.28z" stroke="#333" fill="#333"/><defs><path d="M140-251c80 0 125 45 125 126 0 70-33 111-92 124 6 28 34 38 68 31l-1 36C177 83 129 55 120 2 51-6 15-50 15-125c0-81 44-126 125-126zm-1 214c52 0 73-35 73-88 0-50-21-86-72-86-52 0-73 35-73 86s22 88 72 88" id="y"/><path d="M85 4C-2 5 27-109 22-190h50c7 57-23 150 33 157 60-5 35-97 40-157h50l1 190h-47c-2-12 1-28-3-38-12 25-28 42-61 42" id="z"/><path d="M133-34C117-15 103 5 69 4 32 3 11-16 11-54c-1-60 55-63 116-61 1-26-3-47-28-47-18 1-26 9-28 27l-52-2c7-38 36-58 82-57s74 22 75 68l1 82c-1 14 12 18 25 15v27c-30 8-71 5-69-32zm-48 3c29 0 43-24 42-57-32 0-66-3-65 30 0 17 8 27 23 27" id="A"/><path d="M88-194c31-1 46 15 58 34l-1-101h50l1 261h-48c-2-10 0-23-3-31C134-8 116 4 84 4 32 4 16-41 15-95c0-56 19-97 73-99zm17 164c33 0 40-30 41-66 1-37-9-64-41-64s-38 30-39 65c0 43 13 65 39 65" id="B"/><path d="M135-194c53 0 70 44 70 98 0 56-19 98-73 100-31 1-45-17-59-34 3 33 2 69 2 105H25l-1-265h48c2 10 0 23 3 31 11-24 29-35 60-35zM114-30c33 0 39-31 40-66 0-38-9-64-40-64-56 0-55 130 0 130" id="C"/><path d="M25-224v-37h50v37H25zM25 0v-190h50V0H25" id="D"/><g id="a"><use transform="matrix(0.05,0,0,0.05,0,0)" xlink:href="#y"/><use transform="matrix(0.05,0,0,0.05,14,0)" xlink:href="#z"/><use transform="matrix(0.05,0,0,0.05,24.950000000000003,0)" xlink:href="#A"/><use transform="matrix(0.05,0,0,0.05,34.95,0)" xlink:href="#B"/><use transform="matrix(0.05,0,0,0.05,45.900000000000006,0)" xlink:href="#C"/><use transform="matrix(0.05,0,0,0.05,56.85,0)" xlink:href="#D"/></g><path fill="#333" d="M143 4C61 4 22-44 18-125c-5-107 100-154 193-111 17 8 29 25 37 43l-32 9c-13-25-37-40-76-40-61 0-88 39-88 99 0 61 29 100 91 101 35 0 62-11 79-27v-45h-74v-28h105v86C228-13 192 4 143 4" id="E"/><path fill="#333" d="M100-194c63 0 86 42 84 106H49c0 40 14 67 53 68 26 1 43-12 49-29l28 8c-11 28-37 45-77 45C44 4 14-33 15-96c1-61 26-98 85-98zm52 81c6-60-76-77-97-28-3 7-6 17-6 28h103" id="F"/><path fill="#333" d="M59-47c-2 24 18 29 38 22v24C64 9 27 4 27-40v-127H5v-23h24l9-43h21v43h35v23H59v120" id="G"/><g id="b"><use transform="matrix(0.05,0,0,0.05,0,0)" xlink:href="#E"/><use transform="matrix(0.05,0,0,0.05,14,0)" xlink:href="#F"/><use transform="matrix(0.05,0,0,0.05,24,0)" xlink:href="#G"/></g><path fill="#333" d="M30 0v-248h33v221h125V0H30" id="H"/><path fill="#333" d="M115-194c53 0 69 39 70 98 0 66-23 100-70 100C84 3 66-7 56-30L54 0H23l1-261h32v101c10-23 28-34 59-34zm-8 174c40 0 45-34 45-75 0-40-5-75-45-74-42 0-51 32-51 76 0 43 10 73 51 73" id="I"/><path fill="#333" d="M85-194c31 0 48 13 60 33l-1-100h32l1 261h-30c-2-10 0-23-3-31C134-8 116 4 85 4 32 4 16-35 15-94c0-66 23-100 70-100zm9 24c-40 0-46 34-46 75 0 40 6 74 45 74 42 0 51-32 51-76 0-42-9-74-50-73" id="J"/><path fill="#333" d="M108 0H70L1-190h34L89-25l56-165h34" id="K"/><g id="c"><use transform="matrix(0.05,0,0,0.05,0,0)" xlink:href="#H"/><use transform="matrix(0.05,0,0,0.05,10,0)" xlink:href="#F"/><use transform="matrix(0.05,0,0,0.05,20,0)" xlink:href="#I"/><use transform="matrix(0.05,0,0,0.05,30,0)" xlink:href="#J"/><use transform="matrix(0.05,0,0,0.05,40,0)" xlink:href="#F"/><use transform="matrix(0.05,0,0,0.05,50,0)" xlink:href="#K"/></g><path fill="#333" d="M177-190C167-65 218 103 67 71c-23-6-38-20-44-43l32-5c15 47 100 32 89-28v-30C133-14 115 1 83 1 29 1 15-40 15-95c0-56 16-97 71-98 29-1 48 16 59 35 1-10 0-23 2-32h30zM94-22c36 0 50-32 50-73 0-42-14-75-50-75-39 0-46 34-46 75s6 73 46 73" id="L"/><path fill="#333" d="M114-163C36-179 61-72 57 0H25l-1-190h30c1 12-1 29 2 39 6-27 23-49 58-41v29" id="M"/><path fill="#333" d="M24-231v-30h32v30H24zM24 0v-190h32V0H24" id="N"/><g id="d"><use transform="matrix(0.05,0,0,0.05,0,0)" xlink:href="#L"/><use transform="matrix(0.05,0,0,0.05,10,0)" xlink:href="#M"/><use transform="matrix(0.05,0,0,0.05,15.949999999999998,0)" xlink:href="#N"/><use transform="matrix(0.05,0,0,0.05,19.9,0)" xlink:href="#J"/></g><path fill="#333" d="M115-194c55 1 70 41 70 98S169 2 115 4C84 4 66-9 55-30l1 105H24l-1-265h31l2 30c10-21 28-34 59-34zm-8 174c40 0 45-34 45-75s-6-73-45-74c-42 0-51 32-51 76 0 43 10 73 51 73" id="O"/><path fill="#333" d="M100-194c62-1 85 37 85 99 1 63-27 99-86 99S16-35 15-95c0-66 28-99 85-99zM99-20c44 1 53-31 53-75 0-43-8-75-51-75s-53 32-53 75 10 74 51 75" id="P"/><path fill="#333" d="M117-194c89-4 53 116 60 194h-32v-121c0-31-8-49-39-48C34-167 62-67 57 0H25l-1-190h30c1 10-1 24 2 32 11-22 29-35 61-36" id="Q"/><path fill="#333" d="M135-143c-3-34-86-38-87 0 15 53 115 12 119 90S17 21 10-45l28-5c4 36 97 45 98 0-10-56-113-15-118-90-4-57 82-63 122-42 12 7 21 19 24 35" id="R"/><g id="e"><use transform="matrix(0.05,0,0,0.05,0,0)" xlink:href="#O"/><use transform="matrix(0.05,0,0,0.05,10,0)" xlink:href="#P"/><use transform="matrix(0.05,0,0,0.05,20,0)" xlink:href="#N"/><use transform="matrix(0.05,0,0,0.05,23.95,0)" xlink:href="#Q"/><use transform="matrix(0.05,0,0,0.05,33.95,0)" xlink:href="#G"/><use transform="matrix(0.05,0,0,0.05,38.95,0)" xlink:href="#R"/></g><path fill="#333" d="M141-36C126-15 110 5 73 4 37 3 15-17 15-53c-1-64 63-63 125-63 3-35-9-54-41-54-24 1-41 7-42 31l-33-3c5-37 33-52 76-52 45 0 72 20 72 64v82c-1 20 7 32 28 27v20c-31 9-61-2-59-35zM48-53c0 20 12 33 32 33 41-3 63-29 60-74-43 2-92-5-92 41" id="S"/><g id="f"><use transform="matrix(0.05,0,0,0.05,0,0)" xlink:href="#S"/><use transform="matrix(0.05,0,0,0.05,10,0)" xlink:href="#Q"/><use transform="matrix(0.05,0,0,0.05,20,0)" xlink:href="#J"/></g><path fill="#333" d="M206 0h-36l-40-164L89 0H53L-1-190h32L70-26l43-164h34l41 164 42-164h31" id="T"/><path fill="#333" d="M106-169C34-169 62-67 57 0H25v-261h32l-1 103c12-21 28-36 61-36 89 0 53 116 60 194h-32v-121c2-32-8-49-39-48" id="U"/><g id="g"><use transform="matrix(0.05,0,0,0.05,0,0)" xlink:href="#T"/><use transform="matrix(0.05,0,0,0.05,12.950000000000001,0)" xlink:href="#F"/><use transform="matrix(0.05,0,0,0.05,22.950000000000003,0)" xlink:href="#N"/><use transform="matrix(0.05,0,0,0.05,26.900000000000002,0)" xlink:href="#L"/><use transform="matrix(0.05,0,0,0.05,36.900000000000006,0)" xlink:href="#U"/><use transform="matrix(0.05,0,0,0.05,46.900000000000006,0)" xlink:href="#G"/><use transform="matrix(0.05,0,0,0.05,51.900000000000006,0)" xlink:href="#R"/></g><path d="M169-182c-1-43-94-46-97-3 18 66 151 10 154 114 3 95-165 93-204 36-6-8-10-19-12-30l50-8c3 46 112 56 116 5-17-69-150-10-154-114-4-87 153-88 188-35 5 8 8 18 10 28" id="V"/><path d="M147 0L96-86 75-71V0H25v-261h50v150l67-79h53l-66 74L201 0h-54" id="W"/><path d="M175 0L67-191c6 58 2 128 3 191H24v-248h59L193-55c-6-58-2-129-3-193h46V0h-61" id="X"/><path d="M24 0v-248h52V0H24" id="Y"/><g id="h"><use transform="matrix(0.05,0,0,0.05,0,0)" xlink:href="#V"/><use transform="matrix(0.05,0,0,0.05,12,0)" xlink:href="#W"/><use transform="matrix(0.05,0,0,0.05,22,0)" xlink:href="#X"/><use transform="matrix(0.05,0,0,0.05,34.95,0)" xlink:href="#X"/><use transform="matrix(0.05,0,0,0.05,47.900000000000006,0)" xlink:href="#Y"/></g><path fill="#333" d="M33 0v-248h34V0H33" id="Z"/><path fill="#333" d="M24 0v-261h32V0H24" id="aa"/><g id="i"><use transform="matrix(0.05,0,0,0.05,0,0)" xlink:href="#Z"/><use transform="matrix(0.05,0,0,0.05,5,0)" xlink:href="#Q"/><use transform="matrix(0.05,0,0,0.05,15,0)" xlink:href="#G"/><use transform="matrix(0.05,0,0,0.05,20,0)" xlink:href="#F"/><use transform="matrix(0.05,0,0,0.05,30,0)" xlink:href="#M"/><use transform="matrix(0.05,0,0,0.05,35.95,0)" xlink:href="#O"/><use transform="matrix(0.05,0,0,0.05,45.95,0)" xlink:href="#P"/><use transform="matrix(0.05,0,0,0.05,55.95,0)" xlink:href="#aa"/><use transform="matrix(0.05,0,0,0.05,59.900000000000006,0)" xlink:href="#S"/><use transform="matrix(0.05,0,0,0.05,69.9,0)" xlink:href="#G"/><use transform="matrix(0.05,0,0,0.05,74.9,0)" xlink:href="#F"/></g><g id="j"><use transform="matrix(0.05,0,0,0.05,0,0)" xlink:href="#P"/><use transform="matrix(0.05,0,0,0.05,10,0)" xlink:href="#I"/><use transform="matrix(0.05,0,0,0.05,20,0)" xlink:href="#R"/><use transform="matrix(0.05,0,0,0.05,29,0)" xlink:href="#F"/><use transform="matrix(0.05,0,0,0.05,39,0)" xlink:href="#M"/><use transform="matrix(0.05,0,0,0.05,44.95,0)" xlink:href="#K"/><use transform="matrix(0.05,0,0,0.05,53.95,0)" xlink:href="#S"/><use transform="matrix(0.05,0,0,0.05,63.95,0)" xlink:href="#G"/><use transform="matrix(0.05,0,0,0.05,68.95,0)" xlink:href="#N"/><use transform="matrix(0.05,0,0,0.05,72.9,0)" xlink:href="#P"/><use transform="matrix(0.05,0,0,0.05,82.9,0)" xlink:href="#Q"/><use transform="matrix(0.05,0,0,0.05,92.9,0)" xlink:href="#R"/></g><g id="k"><use transform="matrix(0.05,0,0,0.05,0,0)" xlink:href="#G"/><use transform="matrix(0.05,0,0,0.05,5,0)" xlink:href="#P"/></g><g id="l"><use transform="matrix(0.05,0,0,0.05,0,0)" xlink:href="#O"/><use transform="matrix(0.05,0,0,0.05,10,0)" xlink:href="#P"/><use transform="matrix(0.05,0,0,0.05,20,0)" xlink:href="#N"/><use transform="matrix(0.05,0,0,0.05,23.95,0)" xlink:href="#Q"/><use transform="matrix(0.05,0,0,0.05,33.95,0)" xlink:href="#G"/><use transform="matrix(0.05,0,0,0.05,38.95,0)" xlink:href="#R"/></g><path d="M190-63c-7 42-38 67-86 67-59 0-84-38-90-98-12-110 154-137 174-36l-49 2c-2-19-15-32-35-32-30 0-35 28-38 64-6 74 65 87 74 30" id="ab"/><path d="M24-248c93 1 206-16 204 79-1 75-69 88-152 82V0H24v-248zm52 121c47 0 100 7 100-41 0-47-54-39-100-39v80" id="ac"/><path d="M123 10C108 53 80 86 19 72V37c35 8 53-11 59-39L3-190h52l48 148c12-52 28-100 44-148h51" id="ad"/><g id="m"><use transform="matrix(0.05,0,0,0.05,0,0)" xlink:href="#V"/><use transform="matrix(0.05,0,0,0.05,12,0)" xlink:href="#ab"/><use transform="matrix(0.05,0,0,0.05,22,0)" xlink:href="#D"/><use transform="matrix(0.05,0,0,0.05,27,0)" xlink:href="#ac"/><use transform="matrix(0.05,0,0,0.05,39,0)" xlink:href="#ad"/></g><path fill="#333" d="M212-179c-10-28-35-45-73-45-59 0-87 40-87 99 0 60 29 101 89 101 43 0 62-24 78-52l27 14C228-24 195 4 139 4 59 4 22-46 18-125c-6-104 99-153 187-111 19 9 31 26 39 46" id="ae"/><path fill="#333" d="M96-169c-40 0-48 33-48 73s9 75 48 75c24 0 41-14 43-38l32 2c-6 37-31 61-74 61-59 0-76-41-82-99-10-93 101-131 147-64 4 7 5 14 7 22l-32 3c-4-21-16-35-41-35" id="af"/><path fill="#333" d="M84 4C-5 8 30-112 23-190h32v120c0 31 7 50 39 49 72-2 45-101 50-169h31l1 190h-30c-1-10 1-25-2-33-11 22-28 36-60 37" id="ag"/><g id="n"><use transform="matrix(0.05,0,0,0.05,0,0)" xlink:href="#ae"/><use transform="matrix(0.05,0,0,0.05,12.950000000000001,0)" xlink:href="#S"/><use transform="matrix(0.05,0,0,0.05,22.950000000000003,0)" xlink:href="#aa"/><use transform="matrix(0.05,0,0,0.05,26.900000000000002,0)" xlink:href="#af"/><use transform="matrix(0.05,0,0,0.05,35.900000000000006,0)" xlink:href="#ag"/><use transform="matrix(0.05,0,0,0.05,45.900000000000006,0)" xlink:href="#aa"/><use transform="matrix(0.05,0,0,0.05,49.85000000000001,0)" xlink:href="#S"/><use transform="matrix(0.05,0,0,0.05,59.85,0)" xlink:href="#G"/><use transform="matrix(0.05,0,0,0.05,64.85000000000001,0)" xlink:href="#F"/></g><g id="o"><use transform="matrix(0.05,0,0,0.05,0,0)" xlink:href="#R"/><use transform="matrix(0.05,0,0,0.05,9,0)" xlink:href="#O"/><use transform="matrix(0.05,0,0,0.05,19,0)" xlink:href="#U"/><use transform="matrix(0.05,0,0,0.05,29,0)" xlink:href="#F"/><use transform="matrix(0.05,0,0,0.05,39,0)" xlink:href="#M"/><use transform="matrix(0.05,0,0,0.05,44.95,0)" xlink:href="#N"/><use transform="matrix(0.05,0,0,0.05,48.900000000000006,0)" xlink:href="#af"/><use transform="matrix(0.05,0,0,0.05,57.900000000000006,0)" xlink:href="#S"/><use transform="matrix(0.05,0,0,0.05,67.9,0)" xlink:href="#aa"/></g><path fill="#333" d="M210-169c-67 3-38 105-44 169h-31v-121c0-29-5-50-35-48C34-165 62-65 56 0H25l-1-190h30c1 10-1 24 2 32 10-44 99-50 107 0 11-21 27-35 58-36 85-2 47 119 55 194h-31v-121c0-29-5-49-35-48" id="ah"/><g id="p"><use transform="matrix(0.05,0,0,0.05,0,0)" xlink:href="#U"/><use transform="matrix(0.05,0,0,0.05,10,0)" xlink:href="#S"/><use transform="matrix(0.05,0,0,0.05,20,0)" xlink:href="#M"/><use transform="matrix(0.05,0,0,0.05,25.950000000000003,0)" xlink:href="#ah"/><use transform="matrix(0.05,0,0,0.05,40.9,0)" xlink:href="#P"/><use transform="matrix(0.05,0,0,0.05,50.9,0)" xlink:href="#Q"/><use transform="matrix(0.05,0,0,0.05,60.900000000000006,0)" xlink:href="#N"/><use transform="matrix(0.05,0,0,0.05,64.85,0)" xlink:href="#af"/><use transform="matrix(0.05,0,0,0.05,73.85,0)" xlink:href="#R"/></g><g id="q"><use transform="matrix(0.05,0,0,0.05,0,0)" xlink:href="#S"/><use transform="matrix(0.05,0,0,0.05,10,0)" xlink:href="#G"/></g><path fill="#333" d="M179-190L93 31C79 59 56 82 12 73V49c39 6 53-20 64-50L1-190h34L92-34l54-156h33" id="ai"/><g id="r"><use transform="matrix(0.05,0,0,0.05,0,0)" xlink:href="#ae"/><use transform="matrix(0.05,0,0,0.05,12.950000000000001,0)" xlink:href="#S"/><use transform="matrix(0.05,0,0,0.05,22.950000000000003,0)" xlink:href="#M"/><use transform="matrix(0.05,0,0,0.05,28.900000000000002,0)" xlink:href="#M"/><use transform="matrix(0.05,0,0,0.05,34.85,0)" xlink:href="#ai"/></g><g id="s"><use transform="matrix(0.05,0,0,0.05,0,0)" xlink:href="#P"/><use transform="matrix(0.05,0,0,0.05,10,0)" xlink:href="#ag"/><use transform="matrix(0.05,0,0,0.05,20,0)" xlink:href="#G"/></g><g id="t"><use transform="matrix(0.05,0,0,0.05,0,0)" xlink:href="#Q"/><use transform="matrix(0.05,0,0,0.05,10,0)" xlink:href="#ag"/><use transform="matrix(0.05,0,0,0.05,20,0)" xlink:href="#ah"/><use transform="matrix(0.05,0,0,0.05,34.95,0)" xlink:href="#F"/><use transform="matrix(0.05,0,0,0.05,44.95,0)" xlink:href="#M"/><use transform="matrix(0.05,0,0,0.05,50.900000000000006,0)" xlink:href="#N"/><use transform="matrix(0.05,0,0,0.05,54.85,0)" xlink:href="#af"/><use transform="matrix(0.05,0,0,0.05,63.85,0)" xlink:href="#S"/><use transform="matrix(0.05,0,0,0.05,73.85000000000001,0)" xlink:href="#aa"/></g><g id="u"><use transform="matrix(0.05,0,0,0.05,0,0)" xlink:href="#N"/><use transform="matrix(0.05,0,0,0.05,3.95,0)" xlink:href="#Q"/><use transform="matrix(0.05,0,0,0.05,13.949999999999998,0)" xlink:href="#G"/><use transform="matrix(0.05,0,0,0.05,18.95,0)" xlink:href="#F"/><use transform="matrix(0.05,0,0,0.05,28.950000000000003,0)" xlink:href="#L"/><use transform="matrix(0.05,0,0,0.05,38.95,0)" xlink:href="#M"/><use transform="matrix(0.05,0,0,0.05,44.900000000000006,0)" xlink:href="#S"/><use transform="matrix(0.05,0,0,0.05,54.900000000000006,0)" xlink:href="#G"/><use transform="matrix(0.05,0,0,0.05,59.900000000000006,0)" xlink:href="#N"/><use transform="matrix(0.05,0,0,0.05,63.85,0)" xlink:href="#P"/><use transform="matrix(0.05,0,0,0.05,73.85000000000001,0)" xlink:href="#Q"/></g><path fill="#333" d="M16-82v-28h88v28H16" id="aj"/><use transform="matrix(0.05,0,0,0.05,0,0)" xlink:href="#aj" id="v"/><g id="w"><use transform="matrix(0.05,0,0,0.05,0,0)" xlink:href="#T"/><use transform="matrix(0.05,0,0,0.05,12.950000000000001,0)" xlink:href="#F"/><use transform="matrix(0.05,0,0,0.05,22.950000000000003,0)" xlink:href="#N"/><use transform="matrix(0.05,0,0,0.05,26.900000000000002,0)" xlink:href="#L"/><use transform="matrix(0.05,0,0,0.05,36.900000000000006,0)" xlink:href="#U"/><use transform="matrix(0.05,0,0,0.05,46.900000000000006,0)" xlink:href="#G"/><use transform="matrix(0.05,0,0,0.05,51.900000000000006,0)" xlink:href="#F"/><use transform="matrix(0.05,0,0,0.05,61.900000000000006,0)" xlink:href="#J"/></g><g id="x"><use transform="matrix(0.05,0,0,0.05,0,0)" xlink:href="#R"/><use transform="matrix(0.05,0,0,0.05,9,0)" xlink:href="#ag"/><use transform="matrix(0.05,0,0,0.05,19,0)" xlink:href="#ah"/></g></defs></g></svg>